<?xml version="1.0" encoding="UTF-8" standalone="no"?>
<!-- Created with Inkscape (http://www.inkscape.org/) -->

<svg
   width="500"
   height="500"
   viewBox="0 0 132.29167 132.29166"
   version="1.1"
   id="svg1"
   xmlns="http://www.w3.org/2000/svg"
   xmlns:svg="http://www.w3.org/2000/svg">
  <defs
     id="defs1" />
  <g
     id="layer1">
    <path
       id="path1"
       style="fill:#333333;stroke-width:1.10087"
       d="M 66.145832,7.9374999 A 58.208332,58.208332 0 0 0 7.9374999,66.145832 58.208332,58.208332 0 0 0 66.145832,124.35417 58.208332,58.208332 0 0 0 124.35417,66.145832 58.208332,58.208332 0 0 0 66.145832,7.9374999 Z m 0,15.7153201 A 42.492882,42.492882 0 0 1 108.63885,66.145832 42.492882,42.492882 0 0 1 66.145832,108.63885 42.492882,42.492882 0 0 1 23.65282,66.145832 42.492882,42.492882 0 0 1 66.145832,23.65282 Z m 14.205852,20.502107 c -2.784686,0 -5.241672,0.553131 -7.371127,1.658813 -2.129474,1.105681 -3.787815,2.661829 -4.975406,4.668449 -1.146627,2.006602 -1.720309,4.340841 -1.720309,7.002674 v 17.260961 c 0,2.661813 0.573682,5.016622 1.720309,7.064168 1.187591,2.00662 2.845932,3.562251 4.975406,4.667933 2.129455,1.105681 4.586441,1.658813 7.371127,1.658813 4.258929,0 7.657813,-1.208459 10.196793,-3.624585 2.579924,-2.416125 3.870048,-5.671218 3.870048,-9.766329 v -9.766845 c 0,-0.204743 -0.08216,-0.369106 -0.24598,-0.49196 -0.122854,-0.163798 -0.286164,-0.245463 -0.490926,-0.245463 H 80.720137 c -0.204762,0 -0.388623,0.08167 -0.552422,0.245463 -0.122853,0.122854 -0.184484,0.287217 -0.184484,0.49196 v 5.589839 c 0,0.204743 0.06163,0.388623 0.184484,0.552421 0.163799,0.122854 0.34766,0.185002 0.552422,0.185002 h 4.791438 c 0.204743,0 0.307475,0.102197 0.307475,0.306958 v 3.808036 c 0,1.638041 -0.492017,2.928164 -1.474845,3.870048 -0.941883,0.941863 -2.210941,1.412834 -3.808037,1.412834 -1.678985,0 -3.051291,-0.532065 -4.116027,-1.596802 -1.023774,-1.064737 -1.535307,-2.457056 -1.535307,-4.177006 V 57.361873 c 0,-1.719949 0.491499,-3.112269 1.474328,-4.177006 1.023791,-1.064736 2.354482,-1.596802 3.992522,-1.596802 1.638041,0 2.948714,0.511514 3.931542,1.535307 0.982828,1.023773 1.474329,2.313897 1.474329,3.870048 v 1.289843 c 0,0.204763 0.06111,0.38912 0.183968,0.552938 0.163817,0.122854 0.348176,0.184485 0.552938,0.184485 h 7.187158 c 0.204762,0 0.368072,-0.06163 0.490926,-0.184485 0.163818,-0.163818 0.24598,-0.348175 0.24598,-0.552938 v -1.351338 c 0,-2.45707 -0.593696,-4.648034 -1.781287,-6.572726 -1.146626,-1.965656 -2.805504,-3.480742 -4.975923,-4.545459 -2.129455,-1.105682 -4.565908,-1.658813 -7.309631,-1.658813 z m -41.742155,0.49196 c -0.204744,0 -0.388623,0.08167 -0.552421,0.245463 -0.122854,0.122853 -0.183968,0.2867 -0.183968,0.491443 v 41.524596 c 0,0.204743 0.06111,0.388623 0.183968,0.552421 0.163798,0.122853 0.347677,0.184485 0.552421,0.184485 h 24.6941 c 0.204744,0 0.368589,-0.06163 0.491443,-0.184485 0.163818,-0.163798 0.245463,-0.347678 0.245463,-0.552421 V 80.94958 c 0,-0.204762 -0.08164,-0.368072 -0.245463,-0.490926 -0.122854,-0.163817 -0.286699,-0.24598 -0.491443,-0.24598 H 46.841068 c -0.204743,0 -0.306958,-0.102712 -0.306958,-0.307475 V 70.01588 c 0,-0.204763 0.102215,-0.307474 0.306958,-0.307474 h 10.258288 c 0.204762,0 0.368589,-0.06111 0.491443,-0.183968 0.163818,-0.163799 0.24598,-0.348175 0.24598,-0.552938 v -5.958293 c 0,-0.204763 -0.08217,-0.368589 -0.24598,-0.491443 -0.122854,-0.163798 -0.286681,-0.245463 -0.491443,-0.245463 H 46.841068 c -0.204743,0 -0.306958,-0.102712 -0.306958,-0.307474 v -9.582361 c 0,-0.204762 0.102215,-0.307475 0.306958,-0.307475 h 16.462561 c 0.204744,0 0.368589,-0.06111 0.491443,-0.183968 0.163818,-0.163818 0.245463,-0.348175 0.245463,-0.552938 v -5.958292 c 0,-0.204743 -0.08164,-0.36859 -0.245463,-0.491443 -0.122854,-0.163799 -0.286699,-0.245463 -0.491443,-0.245463 z" />
  </g>
</svg>
